<svg width="40px" height="45px" viewBox="0 0 14 14" fill="none" xmlns="http://www.w3.org/2000/svg">
<path d="M7.36614 4.74721L7.69013 5.50503C7.7121 5.57093 7.77251 5.60937 7.83291 5.61486L8.65663 5.69174C8.83236 5.70822 8.89826 5.92238 8.77195 6.0377L8.15142 6.58136C8.10199 6.62529 8.08003 6.69119 8.0965 6.75159L8.27772 7.55884C8.31616 7.72907 8.13494 7.86087 7.98118 7.77301L7.27278 7.35016C7.21787 7.31721 7.14648 7.31721 7.09156 7.35016L6.38317 7.77301C6.2349 7.86087 6.04819 7.72907 6.08663 7.55884L6.26784 6.75159C6.28432 6.69119 6.26235 6.62529 6.21293 6.58136L5.59239 6.0377C5.4606 5.92238 5.53199 5.70822 5.70772 5.69174L6.53143 5.61486C6.59733 5.60937 6.65225 5.57093 6.6797 5.51052L7.0037 4.7527C7.0696 4.58796 7.29475 4.58796 7.36614 4.74721Z" stroke="#F0C932" stroke-width="0.549146" stroke-miterlimit="10" stroke-linecap="round" stroke-linejoin="round"/>
<path d="M10.9176 6.35327C10.9318 4.29093 9.27147 2.60757 7.20913 2.59338C5.14679 2.57919 3.46343 4.23954 3.44924 6.30188C3.43504 8.36422 5.09539 10.0476 7.15773 10.0618C9.22007 10.076 10.9034 8.41561 10.9176 6.35327Z" stroke="#F0C932" stroke-width="0.549146" stroke-miterlimit="10" stroke-linecap="round" stroke-linejoin="round"/>
<path d="M6.67418 10.0245L5.74613 12.3584L4.57095 11.013L2.79721 11.1777L3.97238 8.23428" stroke="#F0C932" stroke-width="0.549146" stroke-miterlimit="10" stroke-linecap="round" stroke-linejoin="round"/>
<path d="M7.68465 10.0245L8.6182 12.3584L9.78788 11.013L11.5671 11.1777L10.3864 8.23428" stroke="#F0C932" stroke-width="0.549146" stroke-miterlimit="10" stroke-linecap="round" stroke-linejoin="round"/>
</svg>
